<?xml version="1.0" standalone="no"?>
<!DOCTYPE svg PUBLIC "-//W3C//DTD SVG 20010904//EN"
 "http://www.w3.org/TR/2001/REC-SVG-20010904/DTD/svg10.dtd">
<svg version="1.0" xmlns="http://www.w3.org/2000/svg"
 width="953.000000pt" height="953.000000pt" viewBox="0 0 953.000000 953.000000"
 preserveAspectRatio="xMidYMid meet">
<metadata>
Created by potrace 1.11, written by Peter Selinger 2001-2013
</metadata>
<g transform="translate(0.000000,953.000000) scale(0.100000,-0.100000)"
fill="#000000" stroke="none">
<path d="M4826 9258 c-5 -23 -16 -593 -16 -815 l0 -113 -135 0 c-74 0 -212 7
-307 16 -295 27 -1021 4 -1321 -41 -67 -10 -137 -14 -180 -11 -86 6 -107 9
-102 14 2 2 -6 24 -17 49 -25 56 -21 115 17 271 14 57 25 106 25 110 -1 10
-24 -31 -25 -43 0 -5 -7 -10 -15 -10 -8 0 -15 -7 -15 -15 0 -8 -6 -15 -13 -15
-17 0 -63 -56 -56 -67 3 -5 0 -7 -8 -6 -7 2 -22 -15 -33 -38 -11 -22 -35 -58
-52 -80 -38 -45 -40 -61 -14 -112 25 -49 66 -69 164 -82 115 -15 359 -13 377
3 8 6 6 2 -4 -10 -18 -22 -22 -22 -190 -17 -94 3 -194 10 -221 15 -88 17 -139
61 -154 132 -6 28 -2 38 31 78 21 25 38 51 38 59 0 35 238 285 380 399 52 42
137 103 187 135 51 33 91 62 88 64 -7 8 -223 -142 -310 -215 l-79 -67 -99 -13
c-124 -17 -205 -47 -332 -124 l-100 -61 -169 -5 c-187 -6 -178 -10 -123 60 58
75 217 174 357 223 41 14 114 30 164 36 88 9 92 11 139 54 26 25 81 61 122 81
72 34 81 36 228 42 83 4 167 4 186 0 26 -6 44 -3 70 11 l36 19 -70 -5 c-38 -2
-167 -9 -285 -14 -264 -13 -521 -36 -619 -56 -123 -26 -226 -86 -426 -250 -55
-45 -136 -116 -180 -158 l-80 -77 110 6 c269 15 498 21 599 17 l108 -4 -53
-55 c-30 -30 -179 -174 -331 -320 l-278 -265 3 -43 2 -43 -670 -5 c-428 -3
-726 -9 -824 -17 l-154 -13 7 -91 c3 -50 13 -127 21 -171 37 -202 75 -679 75
-945 l0 -186 103 -17 c138 -23 275 -37 377 -37 62 0 81 -3 73 -11 -9 -9 -59
-8 -195 1 -101 7 -187 15 -192 18 -9 5 -2 -166 7 -174 2 -3 52 -17 110 -31
l105 -27 7 -126 c4 -69 10 -176 14 -239 l6 -113 -77 4 c-42 3 -84 10 -92 18
-14 11 -16 9 -16 -8 0 -31 27 -41 127 -48 48 -4 97 -13 109 -21 12 -7 30 -11
40 -7 15 5 16 4 4 -5 -12 -8 -12 -11 3 -17 31 -12 18 -22 -39 -29 l-56 -7 6
-66 c3 -37 11 -181 17 -321 l12 -254 29 32 c15 17 28 26 28 20 0 -21 -61 -68
-96 -75 -19 -3 -62 -4 -94 -2 -33 2 -60 3 -60 1 0 -1 18 -12 40 -23 24 -12 59
-20 90 -20 32 0 57 -6 66 -15 13 -12 13 -16 2 -20 -9 -4 -14 -30 -15 -88 -1
-45 -5 -193 -9 -329 l-6 -246 -42 -6 c-22 -4 -56 -2 -73 3 -31 9 -33 8 -33
-14 0 -19 10 -27 55 -44 31 -12 62 -21 70 -21 8 0 15 -6 15 -13 0 -6 23 -21
52 -32 28 -11 53 -25 55 -32 13 -38 -167 -61 -215 -27 -13 9 -26 14 -28 11 -3
-3 15 -17 40 -32 43 -25 123 -54 309 -109 48 -15 93 -29 100 -31 9 -4 12 228
12 1117 0 1040 1 1128 18 1187 31 113 65 137 216 156 46 6 53 5 48 -8 -27 -71
-90 -286 -111 -379 -74 -331 -77 -392 -79 -1727 -1 -638 -5 -1151 -8 -1138 -4
12 -13 62 -20 110 -7 48 -16 90 -21 93 -4 3 -8 -82 -8 -188 0 -106 -2 -236 -4
-288 -8 -236 24 -574 78 -833 19 -89 57 -299 85 -466 56 -331 76 -398 147
-491 49 -65 80 -86 244 -163 140 -67 205 -88 262 -86 25 1 27 3 9 6 -40 8
-165 140 -291 308 -103 136 -123 170 -141 230 -11 39 -33 111 -49 160 -16 50
-40 128 -54 175 -14 47 -28 94 -32 105 -4 11 -4 17 0 13 5 -4 30 -56 56 -117
60 -137 133 -266 214 -376 116 -157 110 -153 553 -402 364 -205 417 -232 484
-246 106 -22 254 -35 472 -42 103 -3 271 -8 375 -12 252 -11 2732 -10 2803 0
l56 8 7 156 c4 85 5 157 2 160 -2 2 -66 -3 -143 -11 -591 -66 -1106 -72 -2043
-26 -113 6 -295 15 -405 20 -328 16 -616 46 -740 76 -248 61 -480 172 -693
331 -163 122 -373 345 -492 522 -80 119 -180 343 -238 531 -18 61 -88 364 -97
427 -20 129 -26 181 -39 348 -58 708 -42 1502 44 2180 52 407 202 774 437
1065 88 108 274 284 383 362 205 146 519 277 791 333 217 43 820 108 1284 137
255 16 889 15 1110 -1 934 -67 1495 -194 1901 -428 l62 -36 4 -68 c9 -126 67
-205 157 -214 14 -1 60 -6 102 -10 l77 -8 36 -47 c57 -74 139 -216 183 -315
137 -307 188 -575 238 -1235 38 -511 48 -1048 26 -1385 -6 -82 -8 -151 -5
-154 6 -6 160 34 230 60 36 14 54 26 54 37 0 9 6 114 14 232 19 279 21 387 19
720 -5 557 -19 788 -68 1140 -44 313 -65 498 -65 581 0 36 -9 101 -20 144 -11
43 -18 80 -16 83 9 9 87 -10 107 -27 12 -9 24 -36 29 -63 14 -72 38 -398 60
-808 11 -206 27 -483 35 -615 34 -567 49 -1079 37 -1247 -4 -54 -6 -98 -4 -98
1 0 31 14 65 31 139 70 266 168 321 247 l28 40 8 674 c5 370 9 983 10 1361 0
651 -1 688 -17 683 -66 -19 -399 -40 -408 -26 -4 6 19 10 62 10 73 0 287 23
393 43 l65 12 6 310 c7 355 32 626 84 925 17 96 15 156 -6 203 l-11 25 -207 8
c-113 5 -475 9 -804 9 -538 0 -597 2 -597 16 0 13 -140 149 -587 573 -40 38
-73 73 -73 79 0 5 23 8 55 5 30 -3 55 -2 55 1 0 21 -253 160 -329 181 -30 8
-75 38 -153 106 -61 52 -115 94 -120 94 -6 0 -8 -15 -4 -37 5 -31 4 -34 -5
-20 -6 11 -9 30 -6 43 3 18 -1 25 -17 30 -12 3 -31 16 -43 27 -37 33 -27 11
30 -66 28 -40 58 -83 65 -97 36 -71 113 -159 171 -196 33 -21 89 -57 123 -80
81 -52 120 -105 120 -168 1 -50 -16 -77 -66 -103 -66 -34 -425 -123 -497 -123
-18 0 -45 10 -63 24 -70 53 -117 69 -206 72 l-85 3 73 -9 c90 -10 182 -53 235
-109 47 -50 32 -48 457 -61 462 -14 461 -14 453 8 -5 15 68 -60 174 -177 18
-20 33 -44 33 -55 0 -18 -8 -18 -167 -12 -93 3 -295 9 -450 12 l-283 7 0 40 0
40 -262 -6 c-699 -16 -1790 -30 -2298 -31 -451 0 -523 -2 -355 -8 290 -11
1759 3 2350 22 160 6 349 10 421 10 l131 0 6 -57 c3 -32 2 -107 -1 -167 l-7
-109 -80 2 c-44 1 -78 0 -75 -2 3 -3 50 -10 105 -16 204 -23 424 -53 564 -77
79 -13 146 -22 148 -21 2 2 -55 50 -127 106 -71 56 -130 106 -130 110 0 20
204 51 337 51 l72 0 5 -32 c22 -141 12 -333 -20 -386 -9 -15 -36 -42 -61 -61
l-46 -34 -155 37 c-341 81 -719 145 -1029 172 -135 12 -236 15 -418 10 -271
-7 -1088 -32 -1330 -41 -88 -3 -443 -15 -790 -26 -346 -11 -655 -23 -685 -28
-30 -5 -199 -52 -375 -105 l-320 -95 -27 31 c-54 63 -49 144 11 182 61 39 118
53 271 66 167 14 190 19 137 31 -52 12 -113 45 -131 71 -22 31 -20 81 3 102
26 23 63 32 209 51 191 23 170 7 168 131 l-1 106 120 -6 c66 -3 212 -8 325
-10 l205 -4 -190 9 c-104 5 -254 13 -333 17 l-143 7 6 -47 7 -48 -49 0 c-26 0
-129 -4 -228 -9 -99 -6 -249 -13 -332 -16 l-153 -7 0 29 c0 22 21 50 93 125
l92 96 370 12 c291 9 373 15 386 26 8 8 21 14 27 14 6 0 41 25 79 55 l68 55
80 1 c44 1 98 2 120 4 22 1 285 6 585 10 300 4 572 9 605 10 33 1 173 4 310 6
227 3 238 4 115 9 -74 3 -114 7 -88 8 l48 2 -5 43 c-2 23 -7 101 -10 172 -2
72 -18 237 -35 368 -16 131 -30 264 -30 297 0 59 -15 82 -24 38z m1692 -263
c-3 -3 -9 2 -12 12 -6 14 -5 15 5 6 7 -7 10 -15 7 -18z m-3957 -394 c13 -11
22 -22 19 -24 -3 -3 -18 6 -33 19 -33 28 -20 33 14 5z m1072 -268 c-7 -2 -21
-2 -30 0 -10 3 -4 5 12 5 17 0 24 -2 18 -5z m652 -3 c-55 -4 -203 -7 -330 -7
l-230 1 245 6 c135 3 283 6 330 6 l85 1 -100 -7z m-605 -14 c19 -1 -64 -3
-185 -2 -157 0 -189 2 -110 5 104 6 215 5 295 -3z m-540 -20 c-10 -13 -40 -12
-40 1 0 3 7 3 15 0 8 -4 17 -2 20 3 4 6 9 10 12 10 3 0 0 -6 -7 -14z m-183
-22 c-3 -3 -12 -4 -19 -1 -8 3 -5 6 6 6 11 1 17 -2 13 -5z m5723 -389 c236
-62 419 -244 506 -500 36 -108 44 -268 20 -379 -48 -212 -218 -411 -446 -520
-185 -88 -180 -87 -447 -83 -194 2 -272 8 -423 30 -102 15 -200 27 -217 27
l-33 0 5 58 c3 31 14 307 25 612 11 305 23 574 26 598 6 49 7 49 144 88 61 17
111 24 175 24 67 0 104 5 145 21 103 40 167 49 315 45 90 -2 163 -10 205 -21z
m-7218 -19 c118 -52 231 -163 295 -289 31 -62 63 -187 63 -247 0 -70 -34 -190
-84 -295 -110 -232 -246 -369 -453 -455 -112 -47 -159 -58 -333 -76 -286 -29
-437 2 -583 121 l-57 46 0 132 c0 130 -13 299 -46 608 l-17 157 38 52 c120
163 373 254 583 209 46 -9 53 -8 118 25 l69 35 177 1 c165 0 181 -2 230 -24z
m4995 -532 c-3 -3 -12 -4 -19 -1 -8 3 -5 6 6 6 11 1 17 -2 13 -5z m-5009 -931
c-16 -2 -40 -2 -55 0 -16 2 -3 4 27 4 30 0 43 -2 28 -4z m290 0 c-15 -2 -42
-2 -60 0 -18 2 -6 4 27 4 33 0 48 -2 33 -4z m6195 -10 c-7 -2 -21 -2 -30 0
-10 3 -4 5 12 5 17 0 24 -2 18 -5z m-7398 -13 c13 -6 15 -9 5 -9 -8 0 -22 4
-30 9 -18 12 -2 12 25 0z m115 -30 c20 -6 21 -8 5 -8 -11 0 -29 3 -40 8 -25
11 1 11 35 0z m57 -16 c-3 -3 -12 -4 -19 -1 -8 3 -5 6 6 6 11 1 17 -2 13 -5z
m103 -25 c18 -11 -34 -1 -65 13 -13 5 -9 6 15 2 19 -4 42 -10 50 -15z m7955
-19 c19 -8 19 -9 -4 -9 -21 -1 -23 -5 -19 -40 2 -22 0 -37 -4 -35 -10 7 -10
94 0 93 4 0 16 -4 27 -9z m58 -17 c-7 -2 -19 -2 -25 0 -7 3 -2 5 12 5 14 0 19
-2 13 -5z m70 -10 c-7 -2 -19 -2 -25 0 -7 3 -2 5 12 5 14 0 19 -2 13 -5z m112
-3 c3 -5 1 -10 -4 -10 -6 0 -11 5 -11 10 0 6 2 10 4 10 3 0 8 -4 11 -10z m2
-182 c-2 -29 -3 -6 -3 52 0 58 1 81 3 53 2 -29 2 -77 0 -105z m-214 77 c23 -3
69 -6 102 -8 l60 -2 3 -237 c2 -221 1 -238 -15 -239 -52 -5 -150 4 -160 14 -7
8 -16 90 -23 227 -6 118 -15 224 -19 235 -4 11 -5 27 -2 35 4 12 6 12 9 -2 2
-11 17 -19 45 -23z m224 -377 c-2 -29 -3 -6 -3 52 0 58 1 81 3 53 2 -29 2 -77
0 -105z m-8203 0 c-16 -28 -38 -48 -53 -47 -11 0 -9 3 6 9 12 5 27 18 33 29 6
12 13 21 16 21 3 0 2 -6 -2 -12z m8206 -78 c-8 -5 -19 -10 -25 -10 -5 0 -3 5
5 10 8 5 20 10 25 10 6 0 3 -5 -5 -10z m-130 -113 c30 -3 75 -2 100 3 32 6 49
5 57 -4 20 -18 -11 -54 -52 -62 l-35 -6 0 -324 c0 -300 -1 -325 -17 -332 -27
-10 -111 -8 -122 3 -5 6 -14 135 -20 290 -6 154 -13 322 -17 373 l-6 94 29
-15 c15 -8 53 -17 83 -20z m137 -99 c-3 -7 -5 -2 -5 12 0 14 2 19 5 13 2 -7 2
-19 0 -25z m10 -405 c-1 -43 -3 -8 -3 77 0 85 2 120 3 78 2 -43 2 -113 0 -155z
m-6 -162 c-6 -11 -21 -26 -34 -32 -18 -10 -17 -7 6 14 15 14 27 32 27 38 0 7
3 10 6 7 3 -4 1 -16 -5 -27z m-8216 -21 c-3 -5 -14 -10 -23 -10 -15 0 -15 2
-2 10 20 13 33 13 25 0z m8108 -90 c20 0 37 -5 37 -11 0 -5 4 -8 9 -5 5 3 26
8 47 10 22 2 33 2 25 -1 -10 -4 -11 -7 -1 -13 22 -13 2 -41 -41 -58 l-41 -16
7 -377 8 -378 -27 -7 c-31 -7 -121 3 -148 17 -25 14 -23 -3 5 -28 35 -32 83
-53 122 -53 21 0 38 -6 41 -14 4 -12 15 -10 60 10 l54 24 -1 -33 c-1 -24 -3
-26 -6 -9 -4 18 -9 22 -26 16 -12 -3 -34 -17 -48 -30 -23 -22 -25 -29 -18 -72
4 -26 8 -70 8 -98 2 -98 -75 -174 -192 -190 -38 -5 -48 -4 -53 9 -10 28 16
474 38 637 14 109 22 234 25 421 l5 266 37 -8 c20 -5 53 -9 74 -9z m134 -387
c-2 -32 -3 -8 -3 52 0 61 1 87 3 58 2 -29 2 -78 0 -110z m-8253 -160 c-17 -27
-43 -52 -55 -53 -6 0 63 78 70 79 2 1 -5 -11 -15 -26z m8263 -166 c-2 -23 -3
-1 -3 48 0 50 1 68 3 42 2 -26 2 -67 0 -90z m-8292 -7 c8 -13 -5 -13 -25 0
-13 8 -13 10 2 10 9 0 20 -4 23 -10z m45 0 c0 -5 -4 -10 -10 -10 -5 0 -10 5
-10 10 0 6 5 10 10 10 6 0 10 -4 10 -10z m7700 -23 c0 -2 -19 -21 -42 -42
l-43 -40 40 43 c36 39 45 47 45 39z m540 -26 c0 -14 -50 -71 -62 -71 -6 0 1 9
15 20 14 11 29 29 32 40 7 21 15 27 15 11z m-700 -125 c0 -2 -8 -10 -17 -17
-16 -13 -17 -12 -4 4 13 16 21 21 21 13z m727 -153 c-3 -10 -5 -2 -5 17 0 19
2 27 5 18 2 -10 2 -26 0 -35z m-330 -315 c-3 -7 -5 -2 -5 12 0 14 2 19 5 13 2
-7 2 -19 0 -25z m-6697 -2193 c13 -14 21 -25 18 -25 -2 0 -15 11 -28 25 -13
14 -21 25 -18 25 2 0 15 -11 28 -25z m-130 -92 c0 -8 -9 0 -50 45 l-45 47 48
-45 c26 -24 47 -45 47 -47z"/>
<path d="M8449 7757 c-159 -45 -282 -203 -344 -441 -59 -231 -14 -403 143
-545 91 -81 121 -98 210 -111 168 -26 364 37 456 147 36 43 74 129 81 183 l6
45 -13 -35 c-12 -31 -18 -36 -56 -41 l-44 -6 5 36 c5 45 -14 89 -74 166 -25
33 -67 100 -94 148 -37 68 -54 91 -76 99 -29 10 -37 26 -37 79 0 22 10 30 68
57 83 38 194 59 218 40 28 -23 -52 83 -82 109 -67 56 -125 77 -226 80 -56 2
-114 -2 -141 -10z m63 -559 c45 -68 105 -152 134 -187 44 -53 83 -121 69 -121
-2 0 -15 20 -29 45 -15 25 -29 45 -32 45 -3 0 -2 -5 1 -10 5 -8 -43 -10 -153
-8 l-159 3 3 -45 4 -45 -11 40 c-12 46 -4 252 12 303 6 18 16 31 22 29 6 -2
20 14 30 35 11 21 21 38 23 38 2 0 41 -55 86 -122z m357 -240 c-8 -52 -38 -94
-69 -98 -37 -5 -90 1 -90 10 0 6 6 10 13 10 6 0 44 29 82 65 39 35 70 64 71
65 1 0 -3 -23 -7 -52z"/>
<path d="M8432 7110 c0 -19 2 -27 5 -17 2 9 2 25 0 35 -3 9 -5 1 -5 -18z"/>
<path d="M8359 7078 c7 -10 25 -17 40 -17 l26 2 -25 4 c-14 3 -32 10 -40 16
-13 11 -13 10 -1 -5z"/>
<path d="M8925 7560 c3 -4 27 -10 55 -12 30 -3 59 -13 71 -24 45 -40 89 -159
108 -292 6 -43 9 -48 10 -22 1 50 -34 192 -63 248 -35 69 -65 92 -129 101 -31
4 -54 4 -52 1z"/>
<path d="M9161 7059 c0 -15 -3 -42 -6 -60 l-5 -34 11 34 c5 18 8 45 6 60 l-4
26 -2 -26z"/>
<path d="M9126 6905 c-39 -125 -142 -229 -276 -281 -41 -15 -52 -22 -30 -18
100 18 234 123 283 220 27 55 51 123 45 130 -3 2 -12 -21 -22 -51z"/>
<path d="M8209 6760 c43 -79 94 -135 148 -162 45 -21 59 -23 208 -22 92 1 173
6 190 13 l30 11 -30 -5 c-16 -3 -86 -8 -155 -12 -204 -10 -276 18 -350 131
-58 90 -75 108 -41 46z"/>
<path d="M8408 6413 c17 -2 47 -2 65 0 17 2 3 4 -33 4 -36 0 -50 -2 -32 -4z"/>
<path d="M863 7765 c-156 -48 -277 -205 -338 -435 -74 -281 11 -502 238 -615
87 -44 91 -45 186 -45 168 0 286 38 375 121 50 46 102 137 110 194 6 39 6 39
-4 7 l-11 -33 -182 2 -182 1 108 54 c59 30 107 56 107 59 0 3 -35 -12 -77 -33
-166 -83 -297 -121 -418 -121 -95 -1 -99 32 -9 81 55 30 141 48 231 48 54 0
74 7 171 55 61 30 115 55 121 55 5 0 19 12 31 27 25 32 20 69 -17 126 -18 29
-29 37 -41 31 -9 -3 -29 -6 -44 -5 -15 1 -69 -12 -120 -28 -51 -16 -138 -41
-193 -56 -55 -14 -110 -32 -122 -40 -12 -8 -25 -15 -29 -15 -3 0 13 34 35 76
23 41 41 81 41 88 0 15 71 83 135 128 101 71 222 118 307 118 l37 0 -21 36
c-26 44 -97 98 -157 119 -55 19 -209 19 -268 0z m87 -555 c-20 -13 -33 -13
-25 0 3 6 14 10 23 10 15 0 15 -2 2 -10z m-203 -337 c-3 -10 -5 -4 -5 12 0 17
2 24 5 18 2 -7 2 -21 0 -30z"/>
<path d="M1310 7659 c14 -6 46 -20 72 -31 64 -28 134 -102 163 -174 14 -32 25
-51 25 -40 0 32 -62 136 -103 171 -43 37 -108 71 -153 80 -29 5 -29 5 -4 -6z"/>
<path d="M1572 7370 c0 -14 2 -19 5 -12 2 6 2 18 0 25 -3 6 -5 1 -5 -13z"/>
<path d="M1584 7255 c0 -49 1 -71 3 -48 2 23 2 64 0 90 -2 26 -3 8 -3 -42z"/>
<path d="M1557 7064 c-10 -53 -16 -98 -14 -101 6 -5 40 173 36 186 -2 6 -12
-32 -22 -85z"/>
<path d="M1312 7130 c0 -14 2 -19 5 -12 2 6 2 18 0 25 -3 6 -5 1 -5 -13z"/>
<path d="M1285 7090 c-3 -6 1 -7 9 -4 18 7 21 14 7 14 -6 0 -13 -4 -16 -10z"/>
<path d="M1517 6881 c-37 -141 -145 -246 -279 -271 l-53 -9 52 4 c125 10 246
123 288 268 9 31 15 62 13 68 -2 5 -11 -21 -21 -60z"/>
<path d="M940 6629 c30 -11 82 -22 115 -24 l60 -4 -60 9 c-33 6 -80 17 -104
25 -25 8 -49 15 -55 14 -6 0 14 -9 44 -20z"/>
<path d="M5055 9181 c-6 -5 -28 -11 -50 -13 -33 -2 -41 -7 -43 -25 -3 -21 1
-23 37 -23 32 0 44 5 57 25 17 26 16 53 -1 36z"/>
<path d="M6417 9101 c51 -34 113 -66 147 -76 69 -19 166 -66 215 -103 29 -21
43 -25 100 -23 194 5 471 -90 649 -224 l71 -54 86 -3 c47 -2 85 -1 85 2 0 3
-33 35 -72 70 -266 238 -424 349 -558 391 -75 23 -262 44 -560 64 -129 8 -238
15 -243 15 -4 0 31 -26 80 -59z"/>
<path d="M4627 9121 c-48 -28 -52 -41 -11 -41 29 0 67 32 63 53 -4 14 -10 13
-52 -12z"/>
<path d="M5130 8726 c-1 -1 -2 -24 -3 -53 -3 -56 -24 -90 -61 -95 -13 -2 -21
-10 -21 -23 0 -47 134 -16 170 39 10 15 20 46 22 69 l5 43 -56 10 c-31 6 -56
10 -56 10z"/>
<path d="M6710 8665 c11 -27 24 -68 27 -92 6 -42 4 -46 -38 -86 -29 -27 -70
-52 -117 -70 -73 -28 -299 -86 -337 -88 -12 0 3 -10 35 -25 30 -14 65 -34 77
-46 20 -19 30 -20 100 -15 79 6 176 27 313 67 41 12 84 24 95 27 92 23 126 84
91 166 -17 42 -67 85 -158 138 -40 23 -81 49 -91 57 -16 14 -16 11 3 -33z m47
-97 c-3 -8 -6 -5 -6 6 -1 11 2 17 5 13 3 -3 4 -12 1 -19z"/>
<path d="M4699 8662 c-90 -77 -98 -82 -156 -82 -53 0 -54 0 -51 -27 4 -36 60
-56 141 -51 78 6 95 24 108 117 6 40 8 75 6 77 -2 2 -24 -13 -48 -34z"/>
<path d="M7220 8640 c66 -8 357 -13 349 -6 -2 2 -96 6 -209 8 -113 3 -176 2
-140 -2z"/>
<path d="M5823 8323 c9 -2 23 -2 30 0 6 3 -1 5 -18 5 -16 0 -22 -2 -12 -5z"/>
<path d="M5883 8323 c9 -2 23 -2 30 0 6 3 -1 5 -18 5 -16 0 -22 -2 -12 -5z"/>
<path d="M2822 7730 c0 -19 2 -27 5 -17 2 9 2 25 0 35 -3 9 -5 1 -5 -18z"/>
<path d="M4548 7673 c34 -2 90 -2 125 0 34 2 6 3 -63 3 -69 0 -97 -1 -62 -3z"/>
<path d="M5628 7673 c46 -2 118 -2 160 0 42 1 5 3 -83 3 -88 0 -123 -2 -77 -3z"/>
<path d="M2831 7643 c-1 -30 2 -33 27 -32 22 1 23 2 5 6 -14 3 -23 13 -26 31
-4 24 -4 24 -6 -5z"/>
<path d="M4248 7663 c23 -2 61 -2 85 0 23 2 4 4 -43 4 -47 0 -66 -2 -42 -4z"/>
<path d="M6178 7663 c46 -2 118 -2 160 0 42 1 5 3 -83 3 -88 0 -123 -2 -77 -3z"/>
<path d="M3973 7653 c31 -2 83 -2 115 0 31 2 5 3 -58 3 -63 0 -89 -1 -57 -3z"/>
<path d="M3698 7643 c23 -2 59 -2 80 0 20 2 1 4 -43 4 -44 0 -61 -2 -37 -4z"/>
<path d="M3353 7633 c37 -2 97 -2 135 0 37 2 6 3 -68 3 -74 0 -105 -1 -67 -3z"/>
<path d="M3053 7623 c31 -2 83 -2 115 0 31 2 5 3 -58 3 -63 0 -89 -1 -57 -3z"/>
<path d="M4670 6034 c-861 -114 -1534 -803 -1630 -1669 -7 -68 -10 -412 -8
-1085 l3 -984 27 -16 28 -15 218 218 c120 119 225 218 233 218 35 3 52 -10
190 -147 80 -79 154 -144 164 -144 10 0 86 67 170 150 84 83 155 150 159 150
23 0 77 -45 196 -165 74 -74 143 -135 152 -135 18 0 35 15 219 196 58 57 112
104 119 104 7 0 81 -68 165 -150 84 -83 160 -150 170 -150 10 0 84 65 166 146
116 115 153 147 174 147 21 -1 58 -32 174 -147 82 -81 156 -146 166 -146 10 0
86 67 170 150 84 82 158 150 165 150 8 0 111 -97 230 -215 119 -118 223 -216
231 -216 28 -3 44 3 57 19 16 21 18 1921 1 2070 -38 354 -162 670 -371 944
-254 336 -633 584 -1040 683 -219 53 -480 68 -698 39z m-603 -1355 c163 -78
274 -395 234 -669 -47 -320 -251 -507 -441 -404 -95 52 -170 170 -211 333 -18
73 -21 105 -17 230 6 167 30 260 93 366 46 75 69 100 123 132 80 47 138 50
219 12z m1863 15 c70 -21 154 -103 198 -194 55 -113 75 -207 75 -360 0 -106
-5 -152 -22 -215 -74 -277 -251 -412 -421 -319 -29 15 -68 47 -87 69 -47 53
-107 182 -127 272 -23 104 -21 295 4 400 41 170 144 315 246 347 63 19 70 19
134 0z"/>
<path d="M520 3814 c0 -33 3 -123 7 -201 6 -137 7 -143 27 -143 12 0 54 -16
95 -35 81 -39 182 -128 231 -204 64 -100 64 -100 71 -526 12 -661 25 -1144 30
-1150 3 -2 22 -6 42 -7 34 -3 37 -6 43 -38 3 -19 14 -73 25 -120 63 -272 119
-403 220 -514 97 -106 335 -245 478 -279 28 -6 51 -14 51 -18 0 -3 -26 -32
-57 -65 -138 -144 -392 -264 -557 -264 -58 0 -179 23 -226 43 -25 10 -24 10
13 18 87 20 156 85 181 170 19 63 21 215 4 273 -18 59 -91 129 -150 144 -61
16 -84 15 -146 -3 -91 -27 -143 -88 -187 -219 -33 -99 -33 -173 1 -245 20 -44
21 -52 7 -40 -10 9 -34 22 -53 29 -19 7 -54 24 -77 37 l-42 24 -4 82 c-3 77
-3 75 -5 -26 -2 -115 17 -237 46 -296 15 -30 27 -37 107 -62 99 -32 191 -43
500 -58 410 -21 516 -22 671 -10 128 11 163 11 202 0 78 -22 87 -21 90 18 l3
34 282 -6 c751 -18 1210 -22 2377 -22 1068 0 1484 5 1496 18 1 1 4 35 6 76 l5
74 -291 -7 c-666 -15 -2083 -19 -2451 -7 -203 7 -373 15 -377 19 -4 4 189 22
430 41 240 18 453 36 472 40 43 9 -580 4 -1055 -9 -373 -10 -572 -3 -621 23
-16 9 -49 36 -74 62 -32 33 -78 63 -157 101 -105 52 -113 58 -123 92 -5 20
-10 42 -10 49 0 27 -21 21 -44 -14 -31 -45 -32 -53 -6 -53 16 0 20 -7 20 -33
l0 -33 -112 12 c-111 12 -231 46 -313 87 -72 36 -231 145 -278 190 -97 95
-151 207 -212 442 -60 227 -129 696 -156 1060 -11 148 -8 574 6 810 9 154 26
567 23 569 -2 1 -66 14 -143 29 -118 24 -239 59 -317 92 -16 6 -18 1 -18 -51z
m640 -3179 c0 -14 5 -25 10 -25 15 0 12 -36 -4 -50 -8 -6 -12 -18 -9 -25 8
-22 -43 -122 -69 -135 -19 -9 -20 -9 -7 2 8 7 23 25 33 39 16 25 16 27 -3 32
-14 3 -18 1 -14 -9 3 -7 -17 8 -43 34 -27 26 -48 50 -49 54 0 4 -7 13 -15 20
-12 11 -12 11 -1 -4 17 -22 9 -23 -30 -2 -38 19 -29 32 44 69 35 17 67 25 104
25 50 0 53 -1 53 -25z m-260 -115 c6 0 8 6 4 13 -4 6 5 0 21 -15 15 -16 32
-28 36 -28 12 0 89 -70 89 -81 0 -19 -49 -8 -86 20 -52 38 -140 131 -102 108
15 -9 32 -17 38 -17z m-13 -62 c-3 -8 -6 -5 -6 6 -1 11 2 17 5 13 3 -3 4 -12
1 -19z m196 -25 c-7 -2 -19 -2 -25 0 -7 3 -2 5 12 5 14 0 19 -2 13 -5z"/>
<path d="M1118 533 c7 -3 16 -2 19 1 4 3 -2 6 -13 5 -11 0 -14 -3 -6 -6z"/>
<path d="M9275 3545 c-149 -151 -399 -296 -650 -379 -125 -42 -445 -126 -535
-140 -227 -38 -426 -79 -457 -95 -60 -31 -98 -79 -137 -175 -143 -347 -442
-760 -872 -1206 l-121 -125 -7 -650 c-3 -357 -9 -675 -12 -706 -4 -34 -2 -59
4 -63 6 -3 97 -2 204 4 967 50 1331 62 1723 57 641 -8 799 14 848 117 49 103
62 391 41 881 -17 400 -14 1003 12 1935 10 394 17 528 29 569 8 30 14 55 12
56 -1 0 -38 -35 -82 -80z m-347 -351 c98 -20 187 -62 248 -118 l49 -43 3 -139
c2 -77 -1 -210 -7 -297 -9 -139 -13 -164 -35 -203 l-25 -45 21 -77 c12 -48 22
-123 25 -202 6 -145 -12 -242 -68 -354 -97 -195 -252 -321 -465 -377 -102 -27
-291 -36 -420 -20 -95 12 -504 90 -571 110 -18 5 -33 7 -33 5 0 -3 17 -26 38
-52 22 -26 48 -63 60 -82 81 -138 94 -388 26 -521 -31 -62 -164 -196 -229
-231 -194 -103 -452 -64 -655 101 -61 49 -126 117 -162 171 -49 72 -99 119
-160 152 l-58 31 0 208 0 209 96 97 c92 93 275 295 375 413 l46 54 40 -32 c23
-18 45 -32 51 -32 5 0 60 55 122 123 88 96 153 184 303 407 108 162 217 312
251 349 115 119 256 182 417 186 l95 2 43 46 c35 38 56 50 115 68 39 13 127
42 196 65 141 48 160 50 268 28z m-399 -2060 c234 -44 331 -167 319 -404 -8
-147 -69 -259 -185 -337 -131 -87 -274 -102 -426 -45 l-46 18 100 -4 c219 -9
366 61 432 207 18 38 22 70 25 187 3 125 1 147 -16 187 -48 109 -150 176 -280
185 -55 4 -70 8 -52 13 37 10 36 10 129 -7z m-145 -315 c-110 -149 -133 -201
-99 -229 16 -13 35 -6 35 14 0 8 25 35 55 61 61 52 91 101 101 165 8 51 39 75
76 61 14 -5 43 -31 66 -56 41 -47 42 -49 36 -104 -9 -90 -31 -144 -72 -182
-32 -30 -34 -30 -9 -3 15 16 27 32 27 35 0 3 -19 6 -42 8 -133 8 -165 8 -183
-1 -11 -6 3 14 30 43 l50 53 -55 -48 c-78 -69 -94 -74 -130 -48 -16 12 -43 22
-60 22 -24 0 -30 -4 -31 -22 0 -18 -3 -16 -14 12 -18 47 -18 76 1 141 30 100
135 176 246 178 l48 1 -76 -101z"/>
<path d="M8255 2808 c-140 -27 -290 -133 -383 -273 -98 -145 -167 -364 -158
-495 16 -248 195 -449 439 -495 100 -19 151 -19 284 1 278 41 458 170 528 379
22 65 38 388 24 477 -14 91 -70 199 -139 268 -66 66 -174 124 -259 140 -66 12
-268 11 -336 -2z m472 -352 c35 -16 67 -34 73 -41 23 -27 29 -116 20 -272 -9
-145 -12 -163 -39 -218 -17 -33 -52 -80 -78 -105 l-48 -45 41 45 c33 36 84
116 84 132 0 2 -45 2 -101 1 -98 -2 -136 -13 -122 -36 4 -6 1 -7 -6 -2 -16 9
33 63 62 67 14 2 25 17 35 47 l15 45 -60 57 c-82 77 -179 143 -231 158 -30 8
-46 19 -52 36 -5 13 -19 29 -30 35 -24 13 -17 26 32 62 104 73 286 89 405 34z
m-592 -220 c86 -31 239 -150 281 -216 5 -8 46 -46 92 -84 45 -38 82 -73 82
-77 0 -14 -100 29 -156 66 -28 18 -111 79 -185 136 -74 56 -127 94 -119 84 8
-9 67 -58 132 -107 130 -99 146 -114 94 -93 -45 19 -185 21 -188 3 -1 -7 -4
19 -8 57 -6 68 -7 67 -8 -36 -1 -66 -6 -109 -14 -117 -19 -19 -92 -15 -110 6
-15 16 -24 80 -20 144 2 25 85 159 103 166 5 2 -3 20 -16 40 -29 43 -32 57 -7
47 9 -4 31 -13 47 -19z m-148 -348 c-3 -7 -5 -2 -5 12 0 14 2 19 5 13 2 -7 2
-19 0 -25z"/>
<path d="M8087 2099 c7 -7 15 -10 18 -7 3 3 -2 9 -12 12 -14 6 -15 5 -6 -5z"/>
<path d="M7327 1370 c-115 -29 -205 -136 -238 -285 -22 -97 32 -209 124 -258
55 -29 185 -30 266 -3 65 22 128 77 152 131 23 52 34 198 20 251 -14 50 -71
119 -122 145 -46 23 -147 33 -202 19z m246 -172 c26 -10 27 -14 27 -77 0 -87
-14 -135 -52 -174 l-30 -32 26 33 c37 48 34 62 -13 62 -35 0 -40 -3 -45 -27
-2 -16 -2 22 0 82 3 61 7 120 11 133 6 24 14 24 76 0z m-206 -2 c-3 -8 -1 -17
6 -19 8 -3 5 -18 -10 -51 -16 -32 -23 -66 -24 -109 -1 -42 -3 -54 -8 -37 -7
23 -11 25 -57 21 -27 -1 -52 -8 -57 -15 -13 -19 5 77 21 112 18 40 92 103 131
111 2 1 1 -5 -2 -13z"/>
<path d="M7555 1091 c-6 -5 -19 -11 -30 -14 -19 -4 -19 -5 1 -6 12 0 27 6 34
14 14 16 10 20 -5 6z"/>
<path d="M7310 1045 c-7 -8 -28 -15 -46 -15 -19 0 -34 -4 -34 -10 0 -17 54
-10 79 11 13 11 22 22 19 24 -3 3 -11 -1 -18 -10z"/>
<path d="M537 2918 c2 -299 6 -547 8 -553 2 -5 4 239 4 543 1 318 -3 552 -8
552 -5 0 -7 -226 -4 -542z"/>
<path d="M8230 3260 c0 -6 7 -10 15 -10 8 0 15 2 15 4 0 2 -7 6 -15 10 -8 3
-15 1 -15 -4z"/>
<path d="M543 2310 c0 -25 2 -35 4 -22 2 12 2 32 0 45 -2 12 -4 2 -4 -23z"/>
<path d="M554 2160 c0 -58 1 -81 3 -52 2 28 2 76 0 105 -2 28 -3 5 -3 -53z"/>
<path d="M555 1350 c0 -388 1 -546 2 -353 2 194 2 512 0 706 -1 193 -2 35 -2
-353z"/>
<path d="M5849 456 c-7 -7 -463 -36 -559 -36 -51 0 -79 -4 -75 -10 4 -6 108
-10 280 -10 277 0 344 -4 653 -41 96 -11 175 -19 177 -17 1 2 5 29 7 61 l5 57
-242 0 c-133 0 -244 -2 -246 -4z"/>
<path d="M6364 25 c11 -8 31 -15 45 -14 26 1 23 3 -34 20 -28 8 -29 8 -11 -6z"/>
</g>
</svg>
